<svg width="300" height="201" viewBox="0 0 300 201" fill="none" xmlns="http://www.w3.org/2000/svg">
<path d="M15.2556 106.783H27.6663L89.2125 194.365C92.1012 198.475 96.7871 200.846 101.694 200.846C102.661 200.846 103.642 200.752 104.612 200.56C110.521 199.406 115.199 194.891 116.555 189.024L153.226 30.5112H284.742C293.166 30.5112 300 23.6838 300 15.2556C300 6.83151 293.171 0 284.742 0H141.099C134 0 127.837 4.90291 126.236 11.8179L94.5328 148.866L48.0731 82.7546C45.2199 78.6949 40.5633 76.2737 35.5936 76.2737H15.2556C6.82942 76.2737 0 83.1011 0 91.5293C0.00208723 99.9534 6.83151 106.783 15.2556 106.783Z" fill="#6BBA94"/>
<path d="M170.583 171.627C170.583 179.118 176.69 184.628 184.566 184.628C189.886 184.628 194.023 181.28 197.567 176.945L218.842 148.974L240.115 176.945C244.056 181.871 248.189 184.628 254.095 184.628C261.589 184.628 267.886 179.31 267.886 170.842C267.886 166.903 266.308 163.357 262.958 159.412L236.563 129.081L262.175 99.1351C264.542 96.1796 266.308 93.0279 266.308 88.8889C266.308 81.3978 260.201 75.8834 252.321 75.8834C247.001 75.8834 242.868 79.2334 239.32 83.5727L219.422 109.569L199.923 83.5727C195.978 78.6448 191.848 75.8834 185.941 75.8834C178.452 75.8834 172.153 81.2079 172.153 89.6779C172.153 93.6123 173.731 97.1627 177.074 101.097L201.698 129.467L174.71 161.378C172.159 164.336 170.583 167.488 170.583 171.627Z" fill="#6BBA94"/>
</svg>
