<svg width="512" height="512" viewBox="0 0 512 512" fill="none" xmlns="http://www.w3.org/2000/svg">
<g clip-path="url(#clip0_3_133)">
<path d="M155.525 452.558H75.84C65.988 452.558 58 444.571 58 434.718V309.84C58 299.988 65.987 292 75.84 292H155.524C165.376 292 173.364 299.987 173.364 309.84V434.718C173.364 444.57 165.377 452.558 155.525 452.558Z" fill="#FC0023"/>
<path d="M155.525 292H115.088V452.557H155.525C165.377 452.557 173.365 444.57 173.365 434.717V309.84C173.364 299.988 165.377 292 155.525 292Z" fill="#FC0023"/>
<path d="M313.524 452.625H233.84C223.988 452.625 216 444.638 216 434.785V183.84C216 173.988 223.987 166 233.84 166H313.524C323.376 166 331.364 173.987 331.364 183.84V434.785C331.363 444.637 323.376 452.625 313.524 452.625Z" fill="#FFDB2D"/>
<path d="M313.524 166H273.087V452.625H313.524C323.376 452.625 331.364 444.638 331.364 434.785V183.84C331.363 173.987 323.376 166 313.524 166Z" fill="#FFDB2D"/>
<path d="M471.524 452.503H391.84C381.988 452.503 374 444.516 374 434.663V58.84C374 48.988 381.987 41 391.84 41H471.524C481.376 41 489.364 48.987 489.364 58.84V434.663C489.363 444.515 481.376 452.503 471.524 452.503Z" fill="#85EDC1"/>
<path d="M471.524 41H431.087V452.503H471.524C481.376 452.503 489.364 444.516 489.364 434.663V58.84C489.363 48.987 481.376 41 471.524 41Z" fill="#85EDC1"/>
<path d="M493.566 511.703H17.84C7.988 511.703 0 503.716 0 493.863V18.1371C0 8.28512 7.987 0.297119 17.84 0.297119C27.693 0.297119 35.68 8.28412 35.68 18.1371V476.023H493.566C503.418 476.023 511.406 484.01 511.406 493.863C511.405 503.715 503.418 511.703 493.566 511.703Z" fill="#7B838E"/>
<path d="M493.692 476.023H296.139V511.702H494.16C504.681 511.702 513.075 502.594 511.888 491.833C510.883 482.732 502.849 476.023 493.692 476.023Z" fill="#7B838E"/>
</g>
<defs>
<clipPath id="clip0_3_133">
<rect width="512" height="512" fill="white"/>
</clipPath>
</defs>
</svg>
