<svg width="300" height="300" viewBox="0 0 300 300" fill="none" xmlns="http://www.w3.org/2000/svg">
<g clip-path="url(#clip0_24_42)">
<path d="M293.4 65.2C297.006 65.2 299.92 62.286 299.92 58.68V6.52C299.92 2.914 297.006 0 293.4 0H241.24C237.634 0 234.72 2.914 234.72 6.52V26.08H65.2V6.52C65.2 2.914 62.286 0 58.68 0H6.52C2.914 0 0 2.914 0 6.52V58.68C0 62.286 2.914 65.2 6.52 65.2H26.08V234.72H6.52C2.914 234.72 0 237.634 0 241.24V293.4C0 297.006 2.914 299.92 6.52 299.92H58.68C62.286 299.92 65.2 297.006 65.2 293.4V273.84H234.72V293.4C234.72 297.006 237.634 299.92 241.24 299.92H293.4C297.006 299.92 299.92 297.006 299.92 293.4V241.24C299.92 237.634 297.006 234.72 293.4 234.72H273.84V65.2H293.4ZM247.76 13.04H286.88V52.16H273.84H260.8H247.76V39.12V26.08V13.04V13.04ZM13.04 52.16V13.04H52.16V26.08V39.12V52.16H39.12H26.08H13.04ZM52.16 286.88H13.04V247.76H26.08H39.12H52.16V260.8V273.84V286.88ZM286.88 247.76V286.88H247.76V273.84V260.8V247.76H260.8H273.84H286.88V247.76ZM260.8 234.72H241.24C237.634 234.72 234.72 237.634 234.72 241.24V260.8H65.2V241.24C65.2 237.634 62.286 234.72 58.68 234.72H39.12V65.2H58.68C62.286 65.2 65.2 62.286 65.2 58.68V39.12H234.72V58.68C234.72 62.286 237.634 65.2 241.24 65.2H260.8V234.72Z" fill="#2D213F"/>
</g>
<defs>
<clipPath id="clip0_24_42">
<rect width="299.92" height="299.92" fill="white"/>
</clipPath>
</defs>
</svg>
