<svg width="300" height="300" viewBox="0 0 300 300" fill="none" xmlns="http://www.w3.org/2000/svg">
<g clip-path="url(#clip0_10_217)">
<path d="M98.1663 241.132C95.047 238.012 90.003 238.012 86.8837 241.132C83.7644 244.251 83.7644 249.295 86.8837 252.414L95.9098 261.44H59.2746C35.4485 261.44 16.1354 242.061 16.1354 218.301V191.555C16.1354 187.174 12.5515 183.591 8.17125 183.591C3.79097 183.591 0.207092 187.174 0.207092 191.555V218.301C0.207092 250.888 26.6879 277.369 59.2746 277.369H95.9098L86.8837 286.395C83.7644 289.514 83.7644 294.558 86.8837 297.677C88.4102 299.204 90.4676 300 92.525 300C94.5824 300 96.5735 299.204 98.1663 297.677L120.798 275.046C123.917 271.926 123.917 266.882 120.798 263.763L98.1663 241.132Z" fill="#4F888B"/>
<path d="M139.58 0.0166016H8.76854C4.38826 0.0166016 0.804382 3.60047 0.804382 7.98076V138.792C0.804382 143.172 4.38826 146.756 8.76854 146.756H139.58C143.96 146.756 147.544 143.172 147.544 138.792V7.98076C147.544 3.60047 144.027 0.0166016 139.58 0.0166016ZM131.616 130.828H16.7327V15.9449H131.616V130.828Z" fill="#F47C6D"/>
<path d="M240.658 22.6481H204.023L213.049 13.622C216.169 10.5027 216.169 5.45877 213.049 2.33947C209.93 -0.779824 204.886 -0.779824 201.767 2.33947L179.202 24.971C176.082 28.0903 176.082 33.1342 179.202 36.2535L201.833 58.885C203.36 60.4115 205.417 61.2079 207.474 61.2079C209.532 61.2079 211.523 60.4115 213.116 58.885C216.235 55.7657 216.235 50.7218 213.116 47.6025L204.09 38.5764H240.725C264.551 38.5764 283.864 57.9559 283.864 81.7156V108.462C283.864 112.842 287.448 116.426 291.828 116.426C296.208 116.426 299.792 112.842 299.792 108.462V81.7156C299.792 49.1289 273.245 22.6481 240.658 22.6481Z" fill="#823A31"/>
<path d="M291.231 284.072C289.107 284.072 287.05 284.934 285.59 286.395C284.129 287.855 283.267 289.912 283.267 292.036C283.267 294.093 284.129 296.217 285.59 297.677C287.05 299.137 289.107 300 291.231 300C293.355 300 295.412 299.137 296.872 297.677C298.332 296.217 299.195 294.16 299.195 292.036C299.195 289.912 298.332 287.855 296.872 286.395C295.346 284.934 293.288 284.072 291.231 284.072Z" fill="#7DD1D7"/>
<path d="M258.511 284.072C254.131 284.072 250.547 287.656 250.547 292.036C250.547 296.416 254.131 300 258.511 300C262.892 300 266.476 296.416 266.476 292.036C266.476 287.656 262.892 284.072 258.511 284.072Z" fill="#7DD1D7"/>
<path d="M193.073 284.072C188.692 284.072 185.108 287.656 185.108 292.036C185.108 296.416 188.692 300 193.073 300C197.453 300 201.037 296.416 201.037 292.036C201.037 287.656 197.519 284.072 193.073 284.072Z" fill="#7DD1D7"/>
<path d="M225.792 284.072C221.412 284.072 217.828 287.656 217.828 292.036C217.828 296.416 221.412 300 225.792 300C230.172 300 233.756 296.416 233.756 292.036C233.756 287.656 230.172 284.072 225.792 284.072Z" fill="#7DD1D7"/>
<path d="M160.42 284.072C158.296 284.072 156.239 284.934 154.779 286.395C153.319 287.855 152.456 289.912 152.456 292.036C152.456 294.093 153.319 296.217 154.779 297.677C156.239 299.137 158.296 300 160.42 300C162.478 300 164.601 299.137 166.061 297.677C167.522 296.217 168.384 294.16 168.384 292.036C168.384 289.912 167.522 287.855 166.061 286.395C164.601 284.934 162.477 284.072 160.42 284.072Z" fill="#7DD1D7"/>
<path d="M160.42 251.352C156.04 251.352 152.456 254.936 152.456 259.316C152.456 263.697 156.04 267.281 160.42 267.281C164.8 267.281 168.384 263.697 168.384 259.316C168.384 254.936 164.8 251.352 160.42 251.352Z" fill="#7DD1D7"/>
<path d="M160.42 218.633C156.04 218.633 152.456 222.217 152.456 226.597C152.456 230.977 156.04 234.561 160.42 234.561C164.8 234.561 168.384 230.977 168.384 226.597C168.384 222.217 164.8 218.633 160.42 218.633Z" fill="#7DD1D7"/>
<path d="M160.42 185.913C156.04 185.913 152.456 189.497 152.456 193.878C152.456 198.258 156.04 201.842 160.42 201.842C164.8 201.842 168.384 198.258 168.384 193.878C168.384 189.497 164.8 185.913 160.42 185.913Z" fill="#7DD1D7"/>
<path d="M160.42 153.26C158.296 153.26 156.239 154.123 154.779 155.583C153.319 157.043 152.456 159.101 152.456 161.224C152.456 163.348 153.319 165.406 154.779 166.866C156.239 168.326 158.296 169.189 160.42 169.189C162.478 169.189 164.601 168.326 166.061 166.866C167.522 165.406 168.384 163.348 168.384 161.224C168.384 159.167 167.522 157.043 166.061 155.583C164.534 154.057 162.477 153.26 160.42 153.26Z" fill="#7DD1D7"/>
<path d="M258.511 153.26C254.131 153.26 250.547 156.844 250.547 161.224C250.547 165.605 254.131 169.189 258.511 169.189C262.892 169.189 266.476 165.605 266.476 161.224C266.476 156.844 262.892 153.26 258.511 153.26Z" fill="#7DD1D7"/>
<path d="M225.792 153.26C221.412 153.26 217.828 156.844 217.828 161.224C217.828 165.605 221.412 169.189 225.792 169.189C230.172 169.189 233.756 165.605 233.756 161.224C233.756 156.844 230.172 153.26 225.792 153.26Z" fill="#7DD1D7"/>
<path d="M193.073 153.26C188.692 153.26 185.108 156.844 185.108 161.224C185.108 165.605 188.692 169.189 193.073 169.189C197.453 169.189 201.037 165.605 201.037 161.224C201.037 156.844 197.519 153.26 193.073 153.26Z" fill="#7DD1D7"/>
<path d="M291.231 153.26C289.107 153.26 287.05 154.123 285.59 155.583C284.129 157.043 283.267 159.101 283.267 161.224C283.267 163.348 284.129 165.406 285.59 166.866C287.05 168.326 289.107 169.189 291.231 169.189C293.355 169.189 295.412 168.326 296.872 166.866C298.332 165.406 299.195 163.348 299.195 161.224C299.195 159.167 298.332 157.043 296.872 155.583C295.346 154.123 293.288 153.26 291.231 153.26Z" fill="#7DD1D7"/>
<path d="M291.231 185.913C286.851 185.913 283.267 189.497 283.267 193.878C283.267 198.258 286.851 201.842 291.231 201.842C295.611 201.842 299.195 198.258 299.195 193.878C299.195 189.497 295.611 185.913 291.231 185.913Z" fill="#7DD1D7"/>
<path d="M291.231 251.352C286.851 251.352 283.267 254.936 283.267 259.316C283.267 263.697 286.851 267.281 291.231 267.281C295.611 267.281 299.195 263.697 299.195 259.316C299.195 254.936 295.611 251.352 291.231 251.352Z" fill="#7DD1D7"/>
<path d="M291.231 218.633C286.851 218.633 283.267 222.217 283.267 226.597C283.267 230.977 286.851 234.561 291.231 234.561C295.611 234.561 299.195 230.977 299.195 226.597C299.195 222.217 295.611 218.633 291.231 218.633Z" fill="#7DD1D7"/>
</g>
<defs>
<clipPath id="clip0_10_217">
<rect width="300" height="300" fill="white"/>
</clipPath>
</defs>
</svg>
