<svg width="496" height="496" viewBox="0 0 496 496" fill="none" xmlns="http://www.w3.org/2000/svg">
<path d="M496 248C496 384.8 384.8 496 248 496C111.2 496 0 384.8 0 248C0 111.2 111.2 0 248 0C384.8 0 496 111.2 496 248Z" fill="#CC1456"/>
<path d="M248 0C384.8 0 496 111.2 496 248C496 384.8 384.8 496 248 496" fill="#CC1456"/>
<path d="M72.8 72.8C169.6 -24 326.4 -24 423.2 72.8C520 169.6 520 326.4 423.2 423.2" fill="#CC1456"/>
<path d="M321.6 333.6C318.4 333.6 316 332.8 313.6 330.4L165.6 182.4C160.8 177.6 160.8 170.4 165.6 165.6C170.4 160.8 177.6 160.8 182.4 165.6L330.4 313.6C335.2 318.4 335.2 325.6 330.4 330.4C328 332.8 324.8 333.6 321.6 333.6Z" fill="#EEFFFF"/>
<path d="M174.4 333.6C171.2 333.6 168.8 332.8 166.4 330.4C161.6 325.6 161.6 318.4 166.4 313.6L314.4 165.6C319.2 160.8 326.4 160.8 331.2 165.6C336 170.4 336 177.6 331.2 182.4L182.4 330.4C180 332.8 176.8 333.6 174.4 333.6Z" fill="#EEFFFF"/>
</svg>
