<svg width="1280" height="930" viewBox="0 0 1280 930" fill="none" xmlns="http://www.w3.org/2000/svg">
<path d="M629.731 357.653C614.094 361.783 602.145 368.717 591.081 379.781C568.953 402.204 558.479 433.478 560.544 471.833C562.314 504.73 571.166 526.858 590.196 545.889C609.226 564.771 626.338 571.705 655.252 571.705C681.953 571.705 700.393 564.919 717.358 549.134C727.98 539.103 736.831 523.318 740.961 506.943C745.977 487.028 743.322 484.963 711.752 483.635C694.788 482.897 688.002 483.045 686.379 484.373C685.346 485.258 683.576 489.093 682.691 492.929C677.528 512.992 665.284 522.58 649.794 518.45C640.795 515.942 637.255 513.139 633.124 504.583C625.896 489.831 624.715 451.476 630.911 429.79C635.927 412.235 651.564 403.384 665.726 410.17C672.512 413.415 676.348 420.201 679.003 433.773C680.183 440.117 681.806 446.017 682.691 446.903C684.314 448.525 701.278 448.673 722.964 446.903C741.699 445.575 743.764 443.805 742.437 431.118C738.011 392.173 714.408 364.144 680.331 356.915C665.874 353.817 643.008 354.26 629.731 357.653Z" fill="black"/>
<path d="M67.5316 359.423C63.401 361.636 64.2862 358.98 25.4884 480.685C12.064 522.875 1 558.87 1 560.493C1 567.574 4.688 568.607 28.7338 568.607C55.2874 568.607 52.9271 570.229 60.4506 545.594L65.4663 529.514H91.8724H118.131L123.442 546.626C126.245 556.067 129.49 564.919 130.67 566.246C132.293 568.312 136.571 568.607 159.732 568.607C189.088 568.607 191.301 568.017 191.301 560.346C191.301 554.887 130.965 363.259 128.457 360.603C125.507 357.653 72.9899 356.62 67.5316 359.423ZM97.4782 460.179C99.5435 467.408 101.314 474.341 101.314 475.226C101.314 476.554 98.3633 477.144 91.5774 477.144H81.8411L82.8737 473.014C85.9716 460.032 91.4299 444.542 92.4625 445.575C93.0526 446.312 95.2654 452.803 97.4782 460.179Z" fill="black"/>
<path d="M294.565 358.685C288.665 360.751 288.665 360.456 288.665 463.277C288.665 555.477 288.812 562.558 291.32 565.509C293.828 568.607 294.418 568.607 350.033 568.754C395.617 568.754 408.156 568.312 416.122 566.541C448.429 559.018 467.459 534.677 465.246 503.255C464.214 488.356 459.198 477.734 447.839 466.818L439.43 458.557L445.774 452.361C457.575 440.854 462.886 423.889 459.788 406.629C457.575 393.648 452.854 384.944 442.971 375.65C433.234 366.504 422.908 361.341 409.631 359.275C399.895 357.653 298.696 357.21 294.565 358.685ZM393.551 412.088C398.42 416.956 399.01 421.972 395.617 428.462C392.666 434.216 388.831 435.101 367.588 435.101H349.885L349.443 421.381L349 407.81H369.063H389.273L393.551 412.088ZM392.519 488.061C398.715 490.716 402.255 495.584 402.255 501.928C402.255 514.467 396.059 517.417 369.801 517.565L349.885 517.712L349.443 501.78L349 485.995H368.325C381.455 485.995 389.126 486.585 392.519 488.061Z" fill="black"/>
<path d="M847.766 360.308L844.078 363.259L843.636 448.673C843.045 541.02 843.783 563.001 847.324 566.394C850.569 569.787 930.525 569.639 945.572 566.246C979.649 558.723 1006.2 532.022 1016.23 495.289C1020.51 479.652 1020.81 447.345 1016.82 432.15C1011.22 410.465 996.909 388.484 980.387 375.945C969.913 367.832 964.897 365.471 951.325 361.783C941.294 359.128 934.656 358.685 895.71 358.095C852.929 357.358 851.307 357.505 847.766 360.308ZM929.787 411.498C957.226 419.611 966.962 469.178 947.195 500.895C940.261 511.959 929.05 517.417 914.15 516.679L904.561 516.237L904.119 464.605C903.971 436.281 904.119 412.088 904.561 411.203C905.447 408.547 920.641 408.695 929.787 411.498Z" fill="black"/>
<path d="M1129.09 360.603L1125.1 363.701V462.982C1125.1 550.314 1125.4 562.411 1127.46 565.361L1129.68 568.607H1202.55H1275.57L1277.93 565.066C1279.85 561.968 1280.15 557.838 1279.7 540.725C1279.41 526.268 1278.67 519.482 1277.34 518.155C1275.87 516.68 1264.95 516.089 1231.32 515.794L1187.06 515.352V501.485V487.471H1220.11C1262.89 487.471 1260.08 489.241 1260.08 461.655C1260.08 434.068 1262.89 435.839 1220.11 435.839H1187.06V423.447V410.908L1230.73 410.465L1274.39 410.022L1277.2 406.482C1279.56 403.532 1280 400.581 1280 384.206C1280 367.832 1279.56 364.881 1277.2 361.931L1274.39 358.39L1203.73 357.948C1133.81 357.505 1132.92 357.653 1129.09 360.603Z" fill="black"/>
<path d="M502.561 344.386L501.093 348.822L501.216 468.77C501.399 585.168 501.46 588.717 502.561 591.201C503.479 593.153 506.109 593.685 513.755 593.685C522.93 593.685 523.847 593.33 524.948 590.136C526.172 586.588 526.172 584.281 526.172 466.818C526.172 349.355 526.172 347.048 524.948 343.499C523.847 340.305 522.93 339.95 513.938 339.95C504.274 339.95 504.09 339.95 502.561 344.386Z" fill="#BF3C1A"/>
<path d="M1054.29 341.436L1052.82 345.872L1052.94 465.819C1053.12 582.218 1053.19 585.766 1054.29 588.251C1055.2 590.202 1057.83 590.735 1065.48 590.735C1074.66 590.735 1075.57 590.38 1076.67 587.186C1077.9 583.637 1077.9 581.33 1077.9 463.867C1077.9 346.404 1077.9 344.097 1076.67 340.549C1075.57 337.355 1074.66 337 1065.66 337C1056 337 1055.82 337 1054.29 341.436Z" fill="#BF3C1A"/>
<path d="M214.897 341.436L213.429 345.872L213.552 465.819C213.735 582.218 213.796 585.766 214.897 588.251C215.815 590.202 218.445 590.735 226.091 590.735C235.266 590.735 236.183 590.38 237.284 587.186C238.508 583.637 238.508 581.33 238.508 463.867C238.508 346.404 238.508 344.097 237.284 340.549C236.183 337.355 235.266 337 226.274 337C216.61 337 216.426 337 214.897 341.436Z" fill="#BF3C1A"/>
<path d="M782.85 344.386L781.382 348.822L781.504 468.77C781.688 585.168 781.749 588.717 782.85 591.201C783.767 593.153 786.398 593.685 794.043 593.685C803.218 593.685 804.136 593.33 805.237 590.136C806.46 586.588 806.46 584.281 806.46 466.818C806.46 349.355 806.46 347.048 805.237 343.499C804.136 340.305 803.218 339.95 794.227 339.95C784.563 339.95 784.379 339.95 782.85 344.386Z" fill="#BF3C1A"/>
</svg>
