<svg width="300" height="241" viewBox="0 0 300 241" fill="none" xmlns="http://www.w3.org/2000/svg">
<path d="M212.5 45.0029H15.5906C8.33553 45.0029 1.6705 49.8932 0.290624 57.0129C-1.56914 66.5877 5.75038 75.0029 15.0006 75.0029H212.5C213.88 75.0029 215 73.8831 215 72.5027V47.5025C215 46.1232 213.88 45.0029 212.5 45.0029Z" fill="#823A31"/>
<path d="M298.229 56.1836L233.229 1.1835C231.745 -0.0715757 229.665 -0.356341 227.894 0.463384C226.13 1.28838 224.999 3.05322 224.999 5.00322V115.003C224.999 116.953 226.13 118.718 227.894 119.538C228.569 119.853 229.284 120.003 230 120.003C231.16 120.003 232.31 119.598 233.23 118.823L298.23 63.823C299.355 62.8679 300 61.4728 300 60.0033C300 58.5338 299.354 57.1386 298.229 56.1836Z" fill="#F47C6D"/>
<path d="M72.1047 120.468C70.3346 119.648 68.2545 119.933 66.7698 121.188L1.77011 176.188C0.645116 177.137 0 178.533 0 180.003C0 181.473 0.645116 182.868 1.77011 183.822L66.7698 238.822C67.6897 239.598 68.8399 240.003 70 240.003C70.7149 240.003 71.4303 239.853 72.1053 239.537C73.8701 238.718 75.0004 236.952 75.0004 235.002V125.003C74.9998 123.053 73.8701 121.288 72.1047 120.468Z" fill="#AAE1E9"/>
<path d="M299.709 177.013C298.324 169.893 291.659 165.003 284.409 165.003H87.4996C86.1197 165.003 84.9994 166.122 84.9994 167.503V192.503C84.9994 193.883 86.1191 195.003 87.4996 195.003H284.999C294.249 195.003 301.57 186.588 299.709 177.013Z" fill="#4F888B"/>
</svg>
