<svg width="300" height="300" viewBox="0 0 300 300" fill="none" xmlns="http://www.w3.org/2000/svg">
<path d="M234.79 213.97L232.21 199.457H231.439C226.531 205.627 221.483 209.932 216.294 212.358C211.106 214.699 204.375 215.863 196.101 215.863C188.193 215.863 182.71 212.947 176.792 207.099C170.903 201.238 168 192.908 168 182.083C168 170.752 171.968 162.409 179.863 157.066C187.828 151.653 196.592 148.554 210.825 148.092L229.363 147.531V142.833C229.363 132.008 223.81 126.595 212.718 126.595C204.164 126.595 194.138 129.119 182.612 134.307L172.964 114.676C185.262 108.225 198.906 105 213.854 105C228.213 105 236.15 108.085 243.779 114.283C251.421 120.523 255.249 129.988 255.249 142.749V213.97H234.916H234.79ZM229.391 164.512L218.145 164.891C209.675 165.143 203.365 166.672 199.214 169.476C195.092 172.281 193.016 176.544 193.016 182.265C193.016 190.398 197.728 194.465 207.151 194.465C213.882 194.465 219.281 192.544 223.305 188.659C227.372 184.775 229.419 179.615 229.419 173.192V164.4" fill="#9F38AF"/>
<path d="M160.918 160.292L126 194.45L126.045 126L160.918 160.292Z" fill="#595959"/>
<path d="M108.027 79.0727C106.044 76.3583 103.411 75 100.128 75C97.2156 75 95.2331 75.5961 94.1807 76.7882C93.1264 77.9803 90.8654 81.1586 87.3973 86.3245C83.9272 91.4896 79.9471 96.1584 75.4563 100.33C70.9637 104.502 64.97 108.476 57.4749 112.25C52.4569 114.767 48.9558 116.819 46.974 118.409C44.9909 119.998 44 122.481 44 125.858C44 128.773 45.0061 131.339 47.0203 133.557C49.0325 135.776 51.3417 136.884 53.9433 136.884C59.3939 136.884 69.988 130.428 85.7244 117.515V207.908C85.7244 213.207 86.8701 217.213 89.1628 219.927C91.4541 222.642 94.4896 224 98.2693 224C106.756 224 111 217.345 111 204.034V90.2975C111.001 85.5297 110.009 81.7893 108.027 79.0727Z" fill="#1595BE"/>
</svg>
