<svg width="300" height="131" viewBox="0 0 300 131" fill="none" xmlns="http://www.w3.org/2000/svg">
<path d="M146.585 0C117.653 0 99.6923 25.1062 99.6923 65.5264C99.8991 105.471 117.291 130.288 145.107 130.288C174.907 130.288 192 106.205 192 64.2131C191.99 23.9998 175.021 0 146.585 0ZM145.841 107.611C134.632 107.611 127.952 91.801 127.952 65.3195C127.952 39.0139 134.88 22.6659 146.037 22.6659C160.669 22.6659 163.74 45.5593 163.74 64.7612C163.73 80.7679 161.403 107.611 145.841 107.611Z" fill="#6BBA94"/>
<path d="M254.586 0C225.653 0 207.692 25.1062 207.692 65.5264C207.899 105.471 225.292 130.288 253.107 130.288C282.908 130.288 300 106.205 300 64.2131C299.99 23.9998 283.021 0 254.586 0ZM253.841 107.611C242.632 107.611 235.952 91.801 235.952 65.3195C235.952 39.0139 242.88 22.6659 254.037 22.6659C268.669 22.6659 271.74 45.5593 271.74 64.7612C271.73 80.7679 269.403 107.611 253.841 107.611Z" fill="#6BBA94"/>
<path d="M46.8932 0C17.9611 0 0 25.1062 0 65.5264C0.206806 105.471 17.5992 130.288 45.4145 130.288C75.2152 130.288 92.3077 106.205 92.3077 64.2131C92.2974 23.9998 75.3289 0 46.8932 0ZM46.1487 107.611C34.9398 107.611 28.26 91.801 28.26 65.3195C28.26 39.0139 35.188 22.6659 46.3451 22.6659C60.9766 22.6659 64.0477 45.5593 64.0477 64.7612C64.0374 80.7679 61.7108 107.611 46.1487 107.611Z" fill="#6BBA94"/>
<path d="M201.231 130.154C206.329 130.154 210.461 126.021 210.461 120.923C210.461 115.825 206.329 111.692 201.231 111.692C196.133 111.692 192 115.825 192 120.923C192 126.021 196.133 130.154 201.231 130.154Z" fill="#6BBA94"/>
</svg>
