<svg width="512" height="512" viewBox="0 0 512 512" fill="none" xmlns="http://www.w3.org/2000/svg">
<g clip-path="url(#clip0_26_271)">
<path d="M488.727 186.182H465.454H253.054H46.545H23.273C10.42 186.182 0 175.762 0 162.909V488.727C0 501.582 10.42 512 23.273 512H253.054H488.728C501.58 512 512 501.582 512 488.727V162.909C512 175.762 501.58 186.182 488.727 186.182Z" fill="#FFDA44"/>
<path d="M488.727 46.545H356.848H333.575H310.302H253.053H201.696H178.423H155.15H23.273C10.42 46.545 0 56.965 0 69.818V162.909C0 175.762 10.42 186.182 23.273 186.182H46.546H253.054H465.455H488.728C501.581 186.182 512.001 175.762 512.001 162.909V69.818C512 56.965 501.58 46.545 488.727 46.545Z" fill="#548CC0"/>
<path d="M253.054 343.066L263.531 308.461L273.92 343.066H253.054V372.455H282.716L289.417 394.909C289.448 395.01 289.479 395.111 289.512 395.212C291.493 401.108 296.685 404.771 303.06 404.771C311.209 404.771 319.933 398.829 319.933 389.985C319.933 388.95 319.775 388.087 319.648 387.526C319.58 387.05 319.476 386.58 319.335 386.119L280.024 257.796C280.002 257.729 279.982 257.663 279.959 257.596C277.801 251.078 271.367 246.866 263.567 246.866C263.07 246.866 262.579 246.885 262.096 246.919C261.989 246.927 261.885 246.942 261.78 246.952C261.403 246.985 261.026 247.02 260.657 247.073C260.561 247.087 260.471 247.107 260.376 247.123C259.997 247.184 259.622 247.247 259.253 247.328C259.188 247.342 259.127 247.361 259.064 247.376C258.668 247.468 258.277 247.567 257.894 247.682C257.858 247.693 257.824 247.707 257.789 247.718C257.381 247.844 256.981 247.979 256.59 248.131C256.578 248.136 256.564 248.142 256.551 248.147C255.293 248.637 254.123 249.261 253.055 250.004V343.07H253.054V343.066Z" fill="#BF3C1A"/>
<path d="M253.054 250C252.038 250.707 251.118 251.524 250.309 252.439C250.301 252.448 250.293 252.458 250.286 252.467C250.027 252.76 249.782 253.064 249.546 253.378C249.513 253.421 249.484 253.468 249.453 253.513C249.245 253.797 249.043 254.086 248.859 254.383C248.8 254.478 248.75 254.575 248.695 254.67C248.541 254.928 248.391 255.184 248.254 255.452C248.159 255.635 248.08 255.826 247.993 256.012C247.905 256.203 247.811 256.389 247.731 256.585C247.573 256.974 247.427 257.375 247.3 257.783L207.904 385.754C207.2 387.675 207.2 389.375 207.2 390.168C207.2 399.189 215.76 404.771 223.688 404.771C230.502 404.771 235.923 400.853 237.569 394.765L244.233 372.456H253.053V343.067V250H253.054Z" fill="#BF3C1A"/>
<path d="M155.482 248.003H122.033C113.633 248.003 107.055 254.082 107.055 261.844V390.736C107.055 398.605 113.633 404.769 122.033 404.769H155.482C186.044 404.769 204.291 386.171 204.291 355.021V297.57C204.291 266.533 186.044 248.003 155.482 248.003ZM173.202 355.022C173.202 368.764 167.902 374.627 155.482 374.627H138.145V278.149H155.482C167.902 278.149 173.202 283.956 173.202 297.569V355.022Z" fill="#BF3C1A"/>
<path d="M155.482 278.149H138.145V374.627H155.482C167.902 374.627 173.202 368.764 173.202 355.022V297.57C173.202 283.957 167.902 278.149 155.482 278.149Z" fill="#FFDA44"/>
<path d="M388.805 248.003C383.226 248.003 378.401 251.255 375.586 256.882L348.95 309.433L322.484 256.925C318.599 249.161 312.519 248.002 309.24 248.002C301.492 248.002 293.129 253.586 293.129 262.605C293.129 264.157 293.402 267.211 295.2 270.445L333.378 343.666V390.543C333.378 398.521 340.208 404.769 348.926 404.769C357.79 404.769 364.474 398.653 364.474 390.543V344.043L403.097 270.327C403.213 270.105 403.322 269.879 403.42 269.647C404.37 267.41 404.916 264.842 404.916 262.605C404.914 253.587 396.553 248.003 388.805 248.003Z" fill="#BF3C1A"/>
<path d="M244.233 372.455L237.569 394.764C235.923 400.852 230.5 404.77 223.688 404.77C215.76 404.77 207.2 399.186 207.2 390.167C207.2 389.374 207.2 387.675 207.904 385.753L247.3 257.782C247.427 257.372 247.573 256.974 247.731 256.584C247.812 256.388 247.905 256.202 247.993 256.011C248.08 255.823 248.159 255.632 248.254 255.451C248.391 255.184 248.543 254.927 248.695 254.669C248.751 254.574 248.8 254.475 248.859 254.382C249.044 254.084 249.245 253.796 249.453 253.512C249.484 253.469 249.514 253.42 249.546 253.377C249.779 253.062 250.029 252.76 250.286 252.466C250.294 252.457 250.302 252.447 250.309 252.438C251.116 251.523 252.036 250.707 253.054 249.999V186.181H46.545H23.273C10.42 186.182 0 175.762 0 162.909V488.727C0 501.582 10.42 512 23.273 512H253.054V372.455H244.233ZM204.291 355.022C204.291 386.173 186.044 404.77 155.482 404.77H122.033C113.633 404.77 107.055 398.606 107.055 390.737V261.845C107.055 254.083 113.633 248.004 122.033 248.004H155.482C186.044 248.004 204.291 266.532 204.291 297.569V355.022Z" fill="#FFDA44"/>
<path d="M23.273 186.182H46.546H253.054V46.545H201.697H178.424H155.151H23.273C10.42 46.545 0 56.965 0 69.818V162.909C0 175.762 10.42 186.182 23.273 186.182Z" fill="#548CC0"/>
</g>
<defs>
<clipPath id="clip0_26_271">
<rect width="512" height="512" fill="white"/>
</clipPath>
</defs>
</svg>
