<svg width="300" height="424" viewBox="0 0 300 424" fill="none" xmlns="http://www.w3.org/2000/svg">
<path d="M290.964 11.5786C284.937 3.86148 276.937 0 266.96 0C258.109 0 252.085 1.69458 248.887 5.08372C245.683 8.47285 238.812 17.5086 228.272 32.1949C217.727 46.8792 205.632 60.1523 191.985 72.0123C178.332 83.8724 160.118 95.1695 137.34 105.9C122.091 113.056 111.451 118.89 105.429 123.408C99.4024 127.927 96.3911 134.987 96.3911 144.588C96.3911 152.873 99.4487 160.168 105.57 166.474C111.685 172.784 118.702 175.934 126.608 175.934C143.172 175.934 175.367 157.579 223.189 120.868V377.85C223.189 392.914 226.67 404.304 233.638 412.021C240.601 419.738 249.826 423.599 261.312 423.599C287.102 423.599 299.999 404.679 299.999 366.838V43.49C300.001 29.9354 296.988 19.3015 290.964 11.5786Z" fill="#7DD1D7"/>
<path d="M173.909 274.525L114.478 274.519L114.474 219.37C114.478 208.946 106.024 200.495 95.5997 200.495C85.1787 200.495 76.7282 208.946 76.7282 219.37V274.522L18.8747 274.519C8.45048 274.522 0 282.972 0 293.393C0.00638737 303.818 8.45048 312.265 18.8747 312.265H76.7282V374.404C76.7282 384.838 85.1787 393.279 95.6029 393.279C106.027 393.279 114.474 384.828 114.478 374.411V312.265H173.915C184.333 312.265 192.783 303.818 192.783 293.4C192.793 282.969 184.333 274.519 173.909 274.525Z" fill="#4F888B"/>
</svg>
