<svg width="512" height="512" viewBox="0 0 512 512" fill="none" xmlns="http://www.w3.org/2000/svg">
<path d="M450.207 432.556C449.285 432.556 448.341 432.409 447.414 432.099L288.517 379.133C286.654 378.512 285.055 377.288 283.965 375.655L184.956 227.142L139.473 287.78C136.783 291.362 131.826 292.366 127.964 290.107L22.034 228.314C17.823 225.857 16.401 220.452 18.857 216.241C21.318 212.034 26.715 210.608 30.93 213.064L130.068 270.896L178.318 206.564C180.034 204.271 182.714 202.835 185.624 203.038C188.486 203.115 191.132 204.581 192.724 206.965L296.974 363.34L453 415.35C457.625 416.893 460.125 421.893 458.582 426.518C457.35 430.216 453.905 432.556 450.207 432.556Z" fill="#AFB9D2"/>
<path d="M26.474 494.345C25.151 494.345 23.801 494.047 22.535 493.414C18.173 491.233 16.405 485.932 18.587 481.57L71.553 375.639C73.285 372.169 77.096 370.251 80.903 370.88L236.071 396.743L336.213 321.636L388.558 33.735C389.429 28.942 394.023 25.778 398.821 26.628C403.619 27.499 406.799 32.098 405.928 36.891L352.962 328.2C352.566 330.389 351.354 332.351 349.574 333.683L243.643 413.131C241.712 414.583 239.277 415.187 236.893 414.777L161 402.5L84.427 389.366L34.38 489.465C32.832 492.561 29.716 494.345 26.474 494.345Z" fill="#8F96AC"/>
<path d="M17.5 512C7.83614 512 0 508.047 0 503.172V8.828C0 3.953 7.83614 0 17.5 0C27.1639 0 35 3.953 35 8.828V503.173C34.998 508.047 27.1639 512 17.5 512Z" fill="#C7CFE2"/>
<path d="M0 494.5C0 484.836 3.95299 477 8.82798 477H503.172C508.047 477 512 484.836 512 494.5C512 504.164 508.047 512 503.172 512H8.82798C3.95299 512 0 504.164 0 494.5Z" fill="#C7CFE2"/>
<path d="M79.448 397.241C89.1986 397.241 97.103 389.336 97.103 379.586C97.103 369.835 89.1986 361.931 79.448 361.931C69.6974 361.931 61.793 369.835 61.793 379.586C61.793 389.336 69.6974 397.241 79.448 397.241Z" fill="#A44ED9"/>
<path d="M132.414 300.138C142.165 300.138 150.069 292.234 150.069 282.483C150.069 272.733 142.165 264.828 132.414 264.828C122.663 264.828 114.759 272.733 114.759 282.483C114.759 292.234 122.663 300.138 132.414 300.138Z" fill="#77D1A6"/>
<path d="M185.379 229.517C195.13 229.517 203.034 221.613 203.034 211.862C203.034 202.111 195.13 194.207 185.379 194.207C175.628 194.207 167.724 202.111 167.724 211.862C167.724 221.613 175.628 229.517 185.379 229.517Z" fill="#77D1A6"/>
<path d="M291.31 388.414C301.061 388.414 308.965 380.51 308.965 370.759C308.965 361.008 301.061 353.104 291.31 353.104C281.559 353.104 273.655 361.008 273.655 370.759C273.655 380.51 281.559 388.414 291.31 388.414Z" fill="#77D1A6"/>
<path d="M450.207 441.379C459.958 441.379 467.862 433.475 467.862 423.724C467.862 413.974 459.958 406.069 450.207 406.069C440.456 406.069 432.552 413.974 432.552 423.724C432.552 433.475 440.456 441.379 450.207 441.379Z" fill="#77D1A6"/>
<path d="M238.345 423.724C248.096 423.724 256 415.82 256 406.069C256 396.318 248.096 388.414 238.345 388.414C228.594 388.414 220.69 396.318 220.69 406.069C220.69 415.82 228.594 423.724 238.345 423.724Z" fill="#A44ED9"/>
<path d="M344.276 344.276C354.027 344.276 361.931 336.372 361.931 326.621C361.931 316.87 354.027 308.966 344.276 308.966C334.525 308.966 326.621 316.87 326.621 326.621C326.621 336.372 334.525 344.276 344.276 344.276Z" fill="#A44ED9"/>
<path d="M397.241 52.965C406.992 52.965 414.896 45.0606 414.896 35.31C414.896 25.5594 406.992 17.655 397.241 17.655C387.49 17.655 379.586 25.5594 379.586 35.31C379.586 45.0606 387.49 52.965 397.241 52.965Z" fill="#A44ED9"/>
</svg>
