<svg width="300" height="300" viewBox="0 0 300 300" fill="none" xmlns="http://www.w3.org/2000/svg">
<path d="M84.5001 88L35 228.227H63.9288L74.0251 194.488H124.843L134.94 228.227H163.854L114.228 88H84.5001ZM99.4202 109.455L118.267 172.136H80.5737L99.4202 109.455Z" fill="#1595BE"/>
<path d="M244.79 225.97L242.21 211.457H241.439C236.531 217.627 231.483 221.932 226.294 224.358C221.106 226.699 214.375 227.863 206.101 227.863C198.193 227.863 192.71 224.947 186.792 219.099C180.903 213.238 178 204.908 178 194.083C178 182.752 181.968 174.409 189.863 169.066C197.828 163.653 206.592 160.554 220.825 160.092L239.363 159.531V154.833C239.363 144.008 233.81 138.595 222.718 138.595C214.164 138.595 204.138 141.119 192.612 146.307L182.964 126.676C195.262 120.225 208.906 117 223.854 117C238.213 117 246.15 120.085 253.779 126.283C261.421 132.523 265.249 141.988 265.249 154.749V225.97H244.916H244.79ZM239.391 176.512L228.145 176.891C219.675 177.143 213.365 178.672 209.214 181.476C205.092 184.281 203.016 188.544 203.016 194.265C203.016 202.398 207.728 206.465 217.151 206.465C223.882 206.465 229.281 204.544 233.305 200.659C237.372 196.775 239.419 191.615 239.419 185.192V176.4" fill="#9F38AF"/>
<path d="M164.158 105.918L130 71L198.45 71.0453L164.158 105.918Z" fill="#595959"/>
</svg>
