<svg width="300" height="300" viewBox="0 0 300 300" fill="none" xmlns="http://www.w3.org/2000/svg">
<path d="M185.646 90.8991L136.146 231.126H165.074L175.171 197.387H225.989L236.085 231.126H265L215.374 90.8991H185.646ZM200.566 112.354L219.412 175.035H181.719L200.566 112.354Z" fill="#9F38AF"/>
<path d="M101.79 231.126L99.2099 216.612H98.4386C93.5307 222.782 88.4825 227.087 83.2941 229.513C78.1057 231.855 71.3748 233.019 63.1014 233.019C55.1927 233.019 49.7098 230.102 43.7922 224.255C37.9027 218.393 35 210.064 35 199.238C35 187.908 38.9684 179.565 46.8632 174.222C54.8281 168.809 63.5922 165.71 77.8253 165.247L96.3633 164.686V159.989C96.3633 149.163 90.8103 143.751 79.7183 143.751C71.1645 143.751 61.1383 146.275 49.6116 151.463L39.964 131.831C52.2619 125.381 65.906 122.156 80.8542 122.156C95.2134 122.156 103.15 125.241 110.779 131.439C118.421 137.679 122.249 147.144 122.249 159.905V231.126H101.916H101.79ZM96.3913 181.668L85.1451 182.047C76.6754 182.299 70.3652 183.827 66.2145 186.632C62.0918 189.437 60.0165 193.699 60.0165 199.421C60.0165 207.554 64.7281 211.62 74.1513 211.62C80.8822 211.62 86.2809 209.699 90.3055 205.815C94.372 201.931 96.4193 196.77 96.4193 190.348V181.556" fill="#1595BE"/>
<path d="M136.158 108.918L102 74L170.45 74.0453L136.158 108.918Z" fill="#595959"/>
</svg>
