<svg width="513" height="513" viewBox="0 0 513 513" fill="none" xmlns="http://www.w3.org/2000/svg">
<g clip-path="url(#clip0_24_82)">
<path d="M24.896 237.171C24.896 232.775 25.971 228.275 28.119 225.092C30.267 221.907 33.2171 220.368 36.9691 220.368C41.1651 220.368 44.313 221.628 46.413 224.094C48.51 226.565 49.5611 229.886 49.5611 234.032C49.5611 236.945 48.523 240.383 46.451 244.333C44.378 248.283 40.7401 252.779 36.3441 257.815L1.27805 294.257V309.713H76.018V292.127H35.487L35.2631 291.265L49.855 275.431C59.336 265.113 65.838 257.23 69.371 251.996C72.899 246.762 74.664 240.686 74.664 233.874C74.664 223.753 71.342 215.754 64.704 209.924C58.063 204.101 48.8171 201.175 36.9691 201.175C25.8111 201.175 16.849 204.637 10.085 211.573C3.32105 218.508 0.061048 226.857 0.309048 236.831L0.458048 237.17H24.896V237.171V237.171Z" fill="#FF9811"/>
<path d="M25.458 127.26H1.27795V147.044H76.018V127.26H51.837V38.0381L1.27795 45.5921V63.5111H25.458V127.26Z" fill="#00A1A7"/>
<path d="M59.408 417.14C64.492 414.819 68.555 411.598 71.591 407.477C74.629 403.355 76.146 398.847 76.146 393.962C76.146 384.136 72.64 376.545 65.63 371.188C58.62 365.829 49.264 363.153 37.561 363.153C27.489 363.153 18.922 365.819 11.862 371.152C4.80197 376.485 1.41597 383.831 1.71297 392.421L1.86197 393.25H26.155C26.155 388.854 27.386 387.484 29.857 385.607C32.326 383.73 35.19 382.602 38.448 382.602C42.596 382.602 45.755 383.666 47.929 385.987C50.101 388.308 51.187 391.122 51.187 394.529C51.187 398.824 49.978 402.385 47.56 404.806C45.14 407.226 41.684 408.637 37.191 408.637H25.458V426.223H37.19C42.178 426.223 46.04 427.696 48.781 430.09C51.522 432.486 52.892 436.438 52.892 441.67C52.892 445.425 51.582 448.603 48.968 451.072C46.35 453.541 42.844 454.807 38.449 454.807C34.598 454.807 31.329 453.147 28.636 450.804C25.943 448.461 24.6 446.007 24.6 441.611H0.158974L0.011974 442.561C-0.234026 452.633 3.42997 460.578 11.01 465.884C18.59 471.19 27.44 473.971 37.56 473.971C49.312 473.971 58.964 471.21 66.519 465.556C74.074 459.904 77.849 452.169 77.849 442.294C77.849 436.271 76.222 431.116 72.962 426.794C69.702 422.471 65.185 419.264 59.408 417.14Z" fill="#BF3C1A"/>
<path d="M511.262 362.468H148.555V435.009H511.262V362.468Z" fill="#FF5023"/>
<path d="M511.262 219.583H148.555V292.124H511.262V219.583Z" fill="#FFDA44"/>
<path d="M511.262 72.304H148.555V144.845H511.262V72.304Z" fill="#00D7DF"/>
<path d="M512.009 362.468H259.213V435.009H512.009V362.468Z" fill="#BF3C1A"/>
<path d="M512.009 219.583H259.213V292.124H512.009V219.583Z" fill="#FF9811"/>
<path d="M512.009 72.304H259.213V144.845H512.009V72.304Z" fill="#00A1A7"/>
</g>
<defs>
<clipPath id="clip0_24_82">
<rect width="512.009" height="512.009" fill="white"/>
</clipPath>
</defs>
</svg>
