<svg width="200" height="176" viewBox="0 0 200 176" fill="none" xmlns="http://www.w3.org/2000/svg">
<path d="M0 159.111C0 168.811 7.90812 175.946 18.1054 175.946C24.9946 175.946 30.3514 171.611 34.9405 165.997L62.4892 129.778L90.0351 165.997C95.1378 172.376 100.489 175.946 108.138 175.946C117.841 175.946 125.995 169.059 125.995 158.095C125.995 152.995 123.951 148.403 119.614 143.295L85.4351 104.019L118.6 65.2432C121.665 61.4162 123.951 57.3351 123.951 51.9757C123.951 42.2757 116.043 35.1351 105.841 35.1351C98.9514 35.1351 93.6 39.473 89.0054 45.0919L63.2405 78.7541L37.9919 45.0919C32.8838 38.7108 27.5351 35.1351 19.8865 35.1351C10.1892 35.1351 2.03243 42.0297 2.03243 52.9973C2.03243 58.0919 4.07568 62.6892 8.40541 67.7838L40.2892 104.519L5.34326 145.841C2.04055 149.67 0 153.751 0 159.111Z" fill="#6BBA94"/>
<path d="M137.838 61.8689C137.838 66.7095 141.739 70.2703 146.771 70.2703C150.169 70.2703 152.812 68.1069 155.076 65.3055L168.668 47.2308L182.259 65.3055C184.776 68.4886 187.416 70.2703 191.19 70.2703C195.977 70.2703 200 66.8336 200 61.3617C200 58.8166 198.992 56.5251 196.852 53.9759L179.989 34.3758L196.352 15.0252C197.864 13.1153 198.992 11.0787 198.992 8.4041C198.992 3.56341 195.09 0 190.057 0C186.658 0 184.017 2.16475 181.751 4.96882L169.039 21.7676L156.582 4.96882C154.062 1.7844 151.423 0 147.649 0C142.865 0 138.841 3.44068 138.841 8.91394C138.841 11.4563 139.849 13.7506 141.985 16.293L157.715 34.6253L140.474 55.2465C138.845 57.1576 137.838 59.1943 137.838 61.8689Z" fill="#6BBA94"/>
</svg>
