<svg width="300" height="424" viewBox="0 0 300 424" fill="none" xmlns="http://www.w3.org/2000/svg">
<path d="M290.964 11.5786C284.938 3.86148 276.937 0 266.961 0C258.11 0 252.086 1.69458 248.887 5.08372C245.683 8.47285 238.813 17.5086 228.273 32.1949C217.728 46.8792 205.633 60.1523 191.985 72.0123C178.333 83.8724 160.118 95.1695 137.341 105.9C122.092 113.056 111.452 118.89 105.43 123.408C99.4031 127.927 96.3918 134.987 96.3918 144.588C96.3918 152.873 99.4494 160.168 105.57 166.474C111.685 172.784 118.703 175.934 126.609 175.934C143.173 175.934 175.368 157.579 223.189 120.868V377.85C223.189 392.914 226.671 404.304 233.638 412.021C240.602 419.738 249.826 423.599 261.312 423.599C287.103 423.599 300 404.679 300 366.838V43.49C300.002 29.9354 296.989 19.3015 290.964 11.5786Z" fill="#F47C6D"/>
<path d="M192.783 266.041C192.783 276.693 183.063 285.319 171.07 285.319H21.7136C9.7203 285.319 0 276.693 0 266.041C0 255.393 9.7203 246.763 21.7136 246.763H171.07C183.063 246.763 192.783 255.39 192.783 266.041Z" fill="#823A31"/>
</svg>
