<svg width="1000" height="1000" viewBox="0 0 1000 1000" fill="none" xmlns="http://www.w3.org/2000/svg">
<path d="M431 565.5H510.3L298.5 9.60001H221.7L10 565.5H89.3L142.8 413.4H374.3L431 565.5ZM165.4 350.6L248.6 119.5C252 110.4 255 97.5 257.6 80.7H259.4C262.5 99.1 265.4 112.1 268 119.5L352 350.6H165.4Z" fill="#1595BE"/>
<path d="M956.1 737.6C933.5 713.3 903.3 699 865.5 694.7V693.3C895.9 683.5 919.8 666.8 937.1 643.4C954.4 620 963.1 592.9 963.1 562.3C963.1 523.8 948.5 492.8 919.3 469.5C890.1 446.2 851.1 434.5 802.3 434.5H639V990.3H806.6C860.2 990.3 904.2 975.5 938.5 946C972.8 916.5 990 877.9 990 830C990 792.7 978.7 761.9 956.1 737.6ZM710.8 497.3H782.6C852.5 497.3 887.4 523.5 887.4 575.9C887.4 605.8 877.5 629.2 857.8 646.1C838.1 663 810.8 671.4 776.2 671.4H710.9L710.8 497.3ZM884 901.6C863.5 918.9 834.5 927.6 797 927.6H710.9V733.9H785.2C871.6 733.9 914.7 765.8 914.7 829.4C914.7 860.2 904.4 884.3 884 901.6Z" fill="#9F38AF"/>
<path d="M455 779.3C424.7 773.7 396.2 760.9 372.9 740.3C312.5 687 297.2 600.4 335.6 529.7L281.7 500.4C229.6 596.3 250.3 713.8 332.3 786.2C366.8 816.6 409.7 835 454.9 841.1V882L562.1 807.2L455 732.4V779.3Z" fill="#595959"/>
</svg>
