<svg width="300" height="300" viewBox="0 0 300 300" fill="none" xmlns="http://www.w3.org/2000/svg">
<path d="M120.79 214.97L118.21 200.457H117.439C112.531 206.627 107.483 210.932 102.294 213.358C97.1057 215.699 90.3748 216.863 82.1014 216.863C74.1927 216.863 68.7098 213.947 62.7922 208.099C56.9027 202.238 54 193.908 54 183.083C54 171.752 57.9684 163.409 65.8632 158.066C73.8281 152.653 82.5922 149.554 96.8253 149.092L115.363 148.531V143.833C115.363 133.008 109.81 127.595 98.7183 127.595C90.1645 127.595 80.1383 130.119 68.6116 135.307L58.964 115.676C71.2619 109.225 84.906 106 99.8542 106C114.213 106 122.15 109.085 129.779 115.283C137.421 121.523 141.249 130.988 141.249 143.749V214.97H120.916H120.79ZM115.391 165.512L104.145 165.891C95.6754 166.143 89.3652 167.672 85.2145 170.476C81.0918 173.281 79.0165 177.544 79.0165 183.265C79.0165 191.398 83.7281 195.465 93.1513 195.465C99.8822 195.465 105.281 193.544 109.305 189.659C113.372 185.775 115.419 180.615 115.419 174.192V165.4" fill="#1595BE"/>
<path d="M188.918 161.292L154 195.45L154.045 127L188.918 161.292Z" fill="#595959"/>
<path d="M244.027 79.0727C242.044 76.3583 239.411 75 236.128 75C233.216 75 231.233 75.5961 230.181 76.7882C229.126 77.9803 226.865 81.1586 223.397 86.3245C219.927 91.4896 215.947 96.1584 211.456 100.33C206.964 104.502 200.97 108.476 193.475 112.25C188.457 114.767 184.956 116.819 182.974 118.409C180.991 119.998 180 122.481 180 125.858C180 128.773 181.006 131.339 183.02 133.557C185.033 135.776 187.342 136.884 189.943 136.884C195.394 136.884 205.988 130.428 221.724 117.515V207.908C221.724 213.207 222.87 217.213 225.163 219.927C227.454 222.642 230.49 224 234.269 224C242.756 224 247 217.345 247 204.034V90.2975C247.001 85.5297 246.009 81.7893 244.027 79.0727Z" fill="#9F38AF"/>
</svg>
