<svg width="300" height="292" viewBox="0 0 300 292" fill="none" xmlns="http://www.w3.org/2000/svg">
<path d="M58.2858 223.976C58.2858 238.147 69.839 248.571 84.7365 248.571C94.8011 248.571 102.627 242.238 109.331 234.037L149.578 181.124L189.821 234.037C197.275 243.355 205.093 248.571 216.267 248.571C230.442 248.571 242.355 238.51 242.355 222.492C242.355 215.041 239.37 208.332 233.032 200.87L183.1 143.491L231.552 86.8425C236.029 81.2515 239.37 75.2893 239.37 67.4595C239.37 53.2885 227.817 42.8568 212.911 42.8568C202.847 42.8568 195.029 49.194 188.316 57.4028L150.676 106.581L113.789 57.4028C106.327 48.0805 98.5127 42.8568 87.3385 42.8568C73.1715 42.8568 61.2551 52.9293 61.2551 68.9521C61.2551 76.3949 64.2401 83.1112 70.5655 90.554L117.145 144.221L66.0919 204.589C61.2669 210.184 58.2858 216.146 58.2858 223.976Z" fill="#6BBA94"/>
<path d="M0 270.106C0 281.885 7.67195 291.429 17.1429 291.429C26.6138 291.429 34.2857 281.885 34.2857 270.106L34.2857 21.3288C34.2857 9.5498 26.6138 -1.09267e-05 17.1429 -1.09267e-05C7.67898 -1.09267e-05 0 9.54397 0 21.3288L0 270.106Z" fill="#6BBA94"/>
<path d="M265.714 270.106C265.714 281.885 273.386 291.429 282.857 291.429C292.328 291.429 300 281.885 300 270.106V21.3288C300 9.5498 292.328 -1.09267e-05 282.857 -1.09267e-05C273.393 -1.09267e-05 265.714 9.54397 265.714 21.3288V270.106Z" fill="#6BBA94"/>
</svg>
