<svg width="1239" height="907" viewBox="0 0 1239 907" fill="none" xmlns="http://www.w3.org/2000/svg">
<path d="M91.5105 336.807C87.0088 339.237 87.9734 336.321 45.689 469.963C31.0583 516.292 19 555.817 19 557.599C19 565.375 23.0194 566.509 49.2261 566.509C78.166 566.509 75.5936 568.29 83.7932 541.238L89.2596 523.581H118.039H146.657L152.445 542.372C155.5 552.739 159.037 562.459 160.323 563.917C162.092 566.185 166.754 566.509 191.996 566.509C223.991 566.509 226.403 565.861 226.403 557.437C226.403 551.444 160.645 341.019 157.911 338.103C154.696 334.863 97.4593 333.729 91.5105 336.807ZM124.148 447.446C126.399 455.384 128.328 462.997 128.328 463.969C128.328 465.427 125.113 466.075 117.717 466.075H107.106L108.231 461.539C111.608 447.284 117.556 430.275 118.682 431.409C119.325 432.219 121.737 439.347 124.148 447.446Z" fill="#00A1A7"/>
<path d="M323.994 338.121L319.653 341.523V450.542C319.653 546.44 319.975 559.723 322.226 562.963L324.637 566.526H404.061H483.646L486.219 562.639C488.309 559.237 488.63 554.701 488.148 535.91C487.826 520.035 487.022 512.584 485.575 511.126C483.968 509.506 472.07 508.858 435.413 508.534L387.18 508.048V492.821V477.432H423.194C469.819 477.432 466.764 479.376 466.764 449.084C466.764 418.792 469.819 420.736 423.194 420.736H387.18V407.128V393.359L434.77 392.873L482.36 392.387L485.415 388.5C487.987 385.26 488.469 382.02 488.469 364.039C488.469 346.058 487.987 342.819 485.415 339.579L482.36 335.691L405.348 335.205C329.139 334.719 328.175 334.881 323.994 338.121Z" fill="#FF9811"/>
<path d="M585.579 339.05L581.72 343.1L582.042 452.605C582.524 558.87 582.685 562.11 585.579 564.378C587.991 566.16 594.904 566.646 615.001 566.646C639.118 566.646 641.529 566.322 644.423 563.406C647.639 560.166 647.639 558.06 647.639 450.823C647.639 343.586 647.639 341.48 644.423 338.24C641.529 335.324 639.118 335 615.483 335C590.081 335 589.598 335 585.579 339.05Z" fill="#BF3C1A"/>
<path d="M814.507 337.451C772.866 348.466 745.534 387.344 741.354 441.124C739.264 468.177 744.248 495.229 755.985 519.203C769.651 547.39 790.712 564.722 818.527 570.554C854.38 578.168 892.002 566.18 912.099 540.748C939.11 506.406 946.988 451.654 931.714 405.325C919.495 368.553 897.469 345.388 866.599 337.289C854.702 334.211 826.405 334.211 814.507 337.451ZM854.702 396.091C866.278 404.677 871.423 425.735 870.297 459.591C869.332 488.749 866.76 498.145 857.113 507.702C850.682 514.182 849.718 514.668 841.518 514.668C829.781 514.668 823.189 510.132 817.401 498.469C811.453 486.481 809.041 469.472 810.166 445.822C811.453 415.206 816.758 401.437 829.781 394.633C837.338 390.745 848.271 391.393 854.702 396.091Z" fill="#9F38AF"/>
<path d="M1034.95 343.262C1032.06 346.501 1031.9 350.227 1031.9 425.552C1032.06 494.074 1032.38 505.737 1034.79 515.295C1041.86 544.129 1059.23 561.948 1087.69 570.047C1098.94 573.287 1104.73 573.773 1125.15 573.773C1151.84 573.773 1167.11 570.695 1182.87 562.11C1193 556.602 1205.05 544.777 1209.39 536.191C1217.59 520.154 1218.08 514.323 1218.72 432.356C1219.2 390.077 1219.04 353.143 1218.4 350.227C1216.63 340.508 1215.02 339.86 1189.62 339.86C1172.42 339.86 1165.98 340.508 1163.57 342.128C1160.68 344.396 1160.52 347.635 1159.71 422.799C1159.07 492.616 1158.59 501.526 1156.18 506.061C1152.64 512.703 1143.15 516.429 1130.29 516.429C1118.88 516.429 1111 513.189 1106.01 506.223C1102.8 501.688 1102.64 499.258 1101.83 422.961C1101.03 347.635 1100.87 344.396 1097.98 342.128C1095.56 340.346 1088.33 339.86 1066.46 339.86C1039.61 339.86 1037.85 340.022 1034.95 343.262Z" fill="#54C058"/>
</svg>
