<svg width="1280" height="930" viewBox="0 0 1280 930" fill="none" xmlns="http://www.w3.org/2000/svg">
<path d="M1043.26 328.761L1038.18 332.825L1037.57 450.478C1036.76 577.681 1037.77 607.958 1042.65 612.631C1047.12 617.305 1157.26 617.102 1177.98 612.428C1224.92 602.065 1261.5 565.286 1275.31 514.689C1281.21 493.15 1281.61 448.649 1276.13 427.72C1268.41 397.849 1248.7 367.572 1225.94 350.301C1211.51 339.125 1204.6 335.873 1185.91 330.793C1172.09 327.136 1162.94 326.526 1109.3 325.713C1050.37 324.697 1048.14 324.901 1043.26 328.761ZM1156.24 399.272C1194.03 410.448 1207.45 478.723 1180.22 522.411C1170.67 537.651 1155.22 545.169 1134.7 544.153L1121.49 543.543L1120.88 472.424C1120.68 433.409 1120.88 400.084 1121.49 398.865C1122.71 395.208 1143.64 395.411 1156.24 399.272Z" fill="#548CC0"/>
<path d="M520.762 316.074C468.133 329.892 433.589 378.66 428.306 446.122C425.664 480.056 431.964 513.991 446.797 544.064C464.069 579.421 490.688 601.163 525.842 608.479C571.155 618.029 618.704 602.992 644.104 571.09C678.242 528.011 688.198 459.33 668.894 401.215C653.451 355.088 625.613 326.031 586.598 315.871C571.562 312.01 535.799 312.01 520.762 316.074ZM571.562 389.632C586.192 400.402 592.694 426.818 591.272 469.287C590.053 505.863 586.802 517.648 574.61 529.637C566.482 537.765 565.263 538.375 554.899 538.375C540.066 538.375 531.735 532.685 524.419 518.055C516.901 503.018 513.853 481.682 515.275 452.015C516.901 413.61 523.607 396.338 540.066 387.804C549.616 382.927 563.434 383.74 571.562 389.632Z" fill="#548CC0"/>
<path d="M742.679 321.01C738.818 325.481 738.615 329.342 738.615 462.437C738.615 591.063 738.818 599.394 742.273 602.848C745.321 606.1 750.401 606.506 779.255 607.116C812.58 607.725 812.783 607.725 817.863 602.645L822.943 597.565V548.594V499.826H835.948C843.872 499.826 849.562 500.842 850.781 502.265C852 503.687 861.144 526.445 871.304 552.658C882.887 582.122 891.624 601.832 894.266 603.864C897.924 607.116 903.207 607.522 933.484 607.522C972.295 607.522 977.375 606.1 977.375 595.533C977.375 592.282 967.824 566.679 956.039 538.434C944.253 510.393 934.703 486.212 934.703 484.789C934.703 483.367 938.97 478.897 944.05 474.833C965.792 457.967 975.749 436.834 975.952 408.386C975.952 386.847 971.482 371.201 960.103 354.538C949.74 339.298 936.125 328.935 918.65 322.839C905.645 318.166 902.8 317.962 825.991 317.353C746.743 316.743 746.54 316.743 742.679 321.01ZM879.839 388.066C889.186 393.146 892.64 409.605 886.748 420.781C881.871 430.129 873.336 432.77 846.311 432.77H822.943V409.809C822.943 397.007 823.552 386.034 824.365 385.425C826.397 383.393 875.572 385.831 879.839 388.066Z" fill="#548CC0"/>
<path d="M20.304 326.321C3.032 327.743 1 328.962 1 337.293C1 342.577 62.1631 587.026 68.2591 606.33C71.1039 615.067 78.6223 617.099 108.899 617.099C137.347 617.099 144.662 615.88 148.32 610.191C149.945 607.955 158.277 576.459 167.014 540.29C175.549 504.324 183.27 474.86 183.88 474.86C184.489 474.86 192.617 505.543 201.965 542.931C212.125 584.181 220.049 611.816 222.081 613.442C224.316 615.271 234.476 616.083 259.267 616.083C288.121 616.083 294.014 615.474 296.859 612.832C300.516 608.971 366.556 349.892 366.759 338.513C366.759 334.449 365.54 329.978 363.915 328.759C362.086 327.133 350.707 326.117 332.419 325.914C306.206 325.508 303.564 325.914 299.907 329.572C297.265 332.417 292.185 350.298 282.635 391.548C275.116 423.45 268.004 453.93 266.379 459.62C263.737 469.17 263.534 469.576 261.705 464.7C260.486 461.855 252.561 430.968 243.824 396.018C235.086 361.068 226.755 331.197 225.332 329.775C219.033 323.273 158.277 323.882 152.587 330.385C151.165 332.213 143.24 360.661 135.315 393.58C115.605 474.656 116.621 470.592 114.589 465.716C113.573 463.48 106.257 432.797 98.3327 397.644C88.9855 355.175 82.8895 332.417 80.6543 330.181C76.5903 326.117 43.8751 324.085 20.304 326.321Z" fill="#548CC0"/>
</svg>
